# Alias OBJ Model File
# Exported from SketchUp, (c) 2000-2012 Trimble Navigation Limited
# File units = meters

mtllib Arquibanquina.mtl

g Mesh1 Group2 Group1 Model

usemtl FrontColor
v 10.442 2.4159 0.414474
vt 33.4646 78.7402
vn 7.63862e-15 -1 3.32388e-17
v 9.592 2.4159 0.514474
vt 4.54747e-13 82.6772
v 9.692 2.4159 0.414474
vt 3.93701 78.7402
f 1/1/1 2/2/1 3/3/1

v 10.442 2.4159 1.41447
vt 33.4646 118.11
f 2/2/1 1/1/1 4/4/1

usemtl BackColor
vn -7.63862e-15 1 -3.32388e-17
f 3/3/2 2/2/2 1/1/2

usemtl FrontColor
v 9.592 2.7159 0.514474
vt -11.811 58.4616
vn -0.707107 -5.39961e-15 -0.707107
vt -6.42995e-14 52.8938
vt -6.39488e-14 58.4616
f 5/5/3 3/6/3 2/7/3

v 9.692 2.7159 0.414474
vt -11.811 52.8938
f 3/6/3 5/5/3 6/8/3

usemtl BackColor
vn 0.707107 5.39961e-15 0.707107
f 2/7/4 3/6/4 5/5/4

f 6/8/4 5/5/4 3/6/4

usemtl FrontColor
vt -4.55993e-13 82.6772
vn -7.70584e-15 1 -6.88668e-17
v 10.442 2.7159 0.414474
vt -33.4646 78.7402
vt -3.93701 78.7402
f 5/9/5 7/10/5 6/11/5

v 10.442 2.7159 1.41447
vt -33.4646 118.11
f 7/10/5 5/9/5 8/12/5

usemtl BackColor
vn 7.70584e-15 -1 6.88668e-17
f 6/11/6 7/10/6 5/9/6

usemtl FrontColor
vt -33.4646 11.811
vn -6.85128e-15 -1.249e-16 -1
vt -3.93701 6.39488e-14
vt -3.93701 11.811
f 7/13/7 3/14/7 6/15/7

vt -33.4646 6.21725e-14
f 3/14/7 7/13/7 1/16/7

usemtl BackColor
vn 6.85128e-15 1.249e-16 1
f 6/15/8 3/14/8 7/13/8

f 1/16/8 7/13/8 3/14/8

usemtl FrontColor
vt 11.811 78.7402
vn 1 7.60038e-15 -2.51981e-15
vt 6.21725e-14 118.11
vt 6.21725e-14 78.7402
f 7/17/9 4/18/9 1/19/9

vt 11.811 118.11
f 4/18/9 7/17/9 8/20/9

usemtl BackColor
vn -1 -7.60038e-15 2.51981e-15
f 1/19/10 4/18/10 7/17/10

f 4/4/2 1/1/2 2/2/2

usemtl FrontColor
v 8.692 2.4159 1.41447
vt -35.4331 118.11
f 2/2/1 4/4/1 9/21/1

usemtl BackColor
f 9/21/2 4/4/2 2/2/2

usemtl FrontColor
vt 33.4646 6.21725e-14
vn 9.25765e-15 1.249e-16 1
v 8.692 2.7159 1.41447
vt -35.4331 11.811
vt -35.4331 5.86198e-14
f 4/22/11 10/23/11 9/24/11

vt 33.4646 11.811
f 10/23/11 4/22/11 8/25/11

usemtl BackColor
vn -9.25765e-15 -1.249e-16 -1
f 9/24/12 10/23/12 4/22/12

usemtl FrontColor
vt -11.811 108.572
vt -5.54638e-14 108.572
f 10/26/3 2/7/3 9/27/3

f 2/7/3 10/26/3 5/5/3

usemtl BackColor
f 9/27/4 2/7/4 10/26/4

f 5/5/4 10/26/4 2/7/4

usemtl FrontColor
vt 35.4331 118.11
f 8/12/5 5/9/5 10/28/5

usemtl BackColor
f 8/12/6 5/9/6 7/10/6

f 10/28/6 5/9/6 8/12/6

f 8/25/12 4/22/12 10/23/12

f 8/20/10 7/17/10 4/18/10

g Mesh2 Group2 Group1 Model

l 10 5

l 10 8

l 10 9

l 9 4

l 9 2

l 2 3

l 5 2

l 5 6

l 6 3

l 7 6

l 7 8

l 7 1

l 1 4

l 1 3

l 8 4

g Mesh3 Group4 Group3 Group1 Model

usemtl FrontColor
v 6.642 2.4159 1.91447
vt 9.09495e-13 59.0551
vn 7.60038e-15 -1 1.249e-16
v 6.642 2.4159 0.414474
vt 4.54747e-13 8.52651e-14
v 8.142 2.4159 0.414474
vt 59.0551 -2.84217e-13
f 11/29/13 12/30/13 13/31/13

usemtl BackColor
vn -7.60038e-15 1 -1.249e-16
f 13/31/14 12/30/14 11/29/14

usemtl FrontColor
vt -4.54747e-13 0
vn -7.81383e-15 -1.249e-16 -1
v 8.142 3.4159 0.414474
vt -59.0551 39.3701
vt -59.0551 0
f 12/32/15 14/33/15 13/34/15

v 6.642 3.4159 0.414474
vt -4.54747e-13 39.3701
f 14/33/15 12/32/15 15/35/15

usemtl BackColor
vn 7.81383e-15 1.249e-16 1
f 15/35/16 12/32/16 14/33/16

usemtl FrontColor
vt 0 8.52651e-14
vn -1 -7.60038e-15 1.79206e-14
v 6.642 3.4159 1.91447
vt -39.3701 59.0551
vt -39.3701 8.52651e-14
f 12/36/17 16/37/17 15/38/17

vt 0 59.0551
f 16/37/17 12/36/17 11/39/17

usemtl BackColor
vn 1 7.60038e-15 -1.79206e-14
f 11/39/18 12/36/18 16/37/18

f 15/38/18 16/37/18 12/36/18

usemtl FrontColor
vt -9.09495e-13 59.0551
vt -59.0551 -2.55795e-13
vt -4.54747e-13 8.52651e-14
f 16/40/14 14/41/14 15/42/14

vt 0 41.7583
vn 0.707107 5.4626e-15 0.707107
vt 39.3701 -41.7583
vt 39.3701 41.7583
f 11/43/19 14/44/19 16/45/19

vt 0 -41.7583
f 14/44/19 11/43/19 13/46/19

usemtl BackColor
vn -0.707107 -5.4626e-15 -0.707107
f 13/46/20 11/43/20 14/44/20

f 16/45/20 14/44/20 11/43/20

f 15/42/13 14/41/13 16/40/13

f 13/34/16 14/33/16 12/32/16

g Mesh4 Group4 Group3 Group1 Model

l 11 13

l 12 11

l 12 13

l 12 15

l 15 14

l 15 16

l 11 16

l 16 14

l 13 14

g Mesh5 Group5 Group3 Group1 Model

usemtl FrontColor
v 12.31 2.4159 0.627474
vt 63.7008 8.38583
vn 7.54305e-15 -1 1.249e-16
v 10.442 2.4159 0.414474
vt -9.84252 1.02318e-12
v 12.31 2.4159 0.414474
vt 63.7008 1.98952e-13
f 17/47/21 18/48/21 19/49/21

v 10.442 2.4159 1.41447
vt -9.84252 39.3701
f 18/48/21 17/47/21 20/50/21

usemtl BackColor
vn -7.54305e-15 1 -1.249e-16
f 19/49/22 18/48/22 17/47/22

usemtl FrontColor
vt 9.84252 1.77636e-15
vn -8.02359e-15 -1.249e-16 -1
v 12.31 2.5159 0.414474
vt -63.7008 3.93701
vt -63.7008 3.63407e-43
f 18/51/23 21/52/23 19/53/23

v 10.442 2.5159 0.414474
vt 9.84252 3.93701
f 21/52/23 18/51/23 22/54/23

usemtl BackColor
vn 8.02359e-15 1.249e-16 1
f 22/54/24 18/51/24 21/52/24

usemtl FrontColor
vt -1.77636e-15 7.44307e-13
vn -1 -7.60038e-15 3.64497e-14
v 10.442 2.5159 1.41447
vt -3.93701 39.3701
vt -3.93701 7.44307e-13
f 18/55/25 23/56/25 22/57/25

vt -1.77636e-15 39.3701
f 23/56/25 18/55/25 20/58/25

usemtl BackColor
vn 1 7.60038e-15 -3.64497e-14
f 20/58/26 18/55/26 23/56/26

f 20/50/22 17/47/22 18/48/22

usemtl FrontColor
v 11.523 2.4159 1.41447
vt 32.7165 39.3701
f 20/50/21 17/47/21 24/59/21

usemtl BackColor
f 24/59/22 17/47/22 20/50/22

usemtl FrontColor
v 12.31 2.5159 0.627474
vt 3.93701 -39.1136
vt 1.77636e-15 4.70477
vt -4.06666e-27 -39.1136
f 25/60/19 24/61/19 17/62/19

v 11.523 2.5159 1.41447
vt 3.93701 4.70477
f 24/61/19 25/60/19 26/63/19

usemtl BackColor
f 17/62/20 24/61/20 25/60/20

f 26/63/20 25/60/20 24/61/20

usemtl FrontColor
vt -63.7008 8.38583
vt 9.84252 39.3701
vt -32.7165 39.3701
f 25/64/22 23/65/22 26/66/22

vt 9.84252 1.02318e-12
f 25/64/22 22/67/22 23/65/22

vt -63.7008 1.98952e-13
f 22/67/22 25/64/22 21/68/22

usemtl BackColor
f 21/68/21 25/64/21 22/67/21

usemtl FrontColor
vt 0 8.38583
vn 1 7.60038e-15 -2.62446e-14
vt 3.93701 1.35376e-12
vt 3.93701 8.38583
f 17/69/27 21/70/27 25/71/27

vt 0 1.35376e-12
f 21/70/27 17/69/27 19/72/27

usemtl BackColor
vn -1 -7.60038e-15 2.62446e-14
f 19/72/28 17/69/28 21/70/28

f 25/71/28 21/70/28 17/69/28

f 19/53/24 21/52/24 18/51/24

f 23/65/21 22/67/21 25/64/21

f 22/57/26 23/56/26 18/55/26

f 26/66/21 23/65/21 25/64/21

usemtl FrontColor
vt -9.84252 3.93701
vn 3.64497e-14 1.249e-16 1
vt 32.7165 1.77636e-15
vt 32.7165 3.93701
f 23/73/29 24/74/29 26/75/29

vt -9.84252 1.77636e-15
f 24/74/29 23/73/29 20/76/29

usemtl BackColor
vn -3.64497e-14 -1.249e-16 -1
f 20/76/30 23/73/30 24/74/30

f 26/75/30 24/74/30 23/73/30

g Mesh6 Group5 Group3 Group1 Model

l 19 18

l 17 19

l 17 25

l 24 17

l 26 24

l 26 25

l 26 23

l 23 20

l 23 22

l 21 22

l 25 21

l 19 21

l 18 22

l 20 18

l 24 20

g Mesh7 Group6 Group3 Group1 Model

usemtl FrontColor
v 8.692 2.9159 0.414474
vt -80.7087 19.685
vn -7.77008e-15 3.35981e-16 -1
v 8.142 2.4159 0.414474
vt -59.0551 -2.05901e-28
v 8.142 2.9159 0.414474
vt -59.0551 19.685
f 27/77/31 28/78/31 29/79/31

v 8.692 2.4159 0.414474
vt -80.7087 9.1924e-29
f 28/78/31 27/77/31 30/80/31

usemtl BackColor
vn 7.77008e-15 -3.35981e-16 1
f 29/79/32 28/78/32 27/77/32

usemtl FrontColor
vt -1.85221e-13 -41.7583
vn -0.707107 -3.24482e-15 -0.707107
v 6.642 2.9159 1.91447
vt -19.685 41.7583
vt -19.685 -41.7583
f 28/81/33 31/82/33 29/83/33

v 6.642 2.4159 1.91447
f 31/82/33 28/81/33 32/43/33

usemtl BackColor
vn 0.707107 3.24482e-15 0.707107
f 32/43/34 28/81/34 31/82/34

usemtl FrontColor
vn 7.40668e-15 -1 -2.77677e-16
vt 59.0551 -4.26326e-13
vt 80.7087 2.27374e-13
f 32/39/35 28/84/35 30/85/35

usemtl BackColor
vn -7.40668e-15 1 2.77677e-16
f 30/85/36 28/84/36 32/39/36

f 30/80/32 27/77/32 28/78/32

usemtl FrontColor
v 9.692 2.9159 0.414474
vt -120.079 19.685
vn 7.58695e-15 3.35981e-16 -1
vt -80.7087 -4.79313e-28
f 33/86/37 30/87/37 27/77/37

v 9.692 2.4159 0.414474
vt -120.079 -7.77341e-28
f 30/87/37 33/86/37 34/88/37

usemtl BackColor
vn -7.58695e-15 -3.35981e-16 1
f 27/77/38 30/87/38 33/86/38

f 34/88/38 33/86/38 30/87/38

usemtl FrontColor
v 9.692 2.6159 0.414474
vt -120.079 7.87402
f 34/88/37 33/86/37 35/89/37

usemtl BackColor
f 35/89/38 33/86/38 34/88/38

usemtl FrontColor
v 7.642 2.9159 2.46447
vt 19.685 29.2308
vn 0.707107 5.11163e-15 0.707107
vt 7.87402 -84.9085
vt 19.685 -84.9085
f 36/90/39 35/91/39 33/92/39

vt 5.95991e-14 -84.9085
f 36/90/39 34/93/39 35/91/39

v 7.642 2.4159 2.46447
vt -5.06372e-14 29.2308
f 34/93/39 36/90/39 37/94/39

usemtl BackColor
vn -0.707107 -5.11163e-15 -0.707107
f 37/94/40 36/90/40 34/93/40

usemtl FrontColor
vn 0.707107 4.84023e-15 0.707107
v 6.642 2.4159 3.46447
vt 3.00186e-28 84.9085
vt -3.55262e-14 29.2308
f 36/90/41 38/95/41 37/96/41

v 6.642 2.9159 3.46447
vt 19.685 84.9085
f 38/95/41 36/90/41 39/97/41

usemtl BackColor
vn -0.707107 -4.84023e-15 -0.707107
f 37/96/42 38/95/42 36/90/42

usemtl FrontColor
vt 39.3701 80.7087
vt 3.41061e-13 120.079
f 32/39/35 37/98/35 38/99/35

f 30/85/35 37/98/35 32/39/35

vt 120.079 1.98952e-13
f 37/98/35 30/85/35 34/100/35

usemtl BackColor
f 34/100/36 30/85/36 37/98/36

f 32/39/36 37/98/36 30/85/36

f 38/99/36 37/98/36 32/39/36

usemtl FrontColor
vt -19.685 120.079
vn -1 -7.53402e-15 1.37269e-14
vt -2.26301e-29 120.079
f 39/101/43 32/39/43 38/102/43

vt -19.685 59.0551
f 32/39/43 39/101/43 31/103/43

usemtl BackColor
vn 1 7.53402e-15 -1.37269e-14
f 38/102/44 32/39/44 39/101/44

f 31/103/44 39/101/44 32/39/44

usemtl FrontColor
vt -39.3701 80.7087
vt -3.44613e-13 120.079
f 36/104/14 31/39/14 39/105/14

v 7.642 2.9159 0.914474
vt -39.3701 19.685
f 31/39/14 36/104/14 40/106/14

usemtl BackColor
f 40/106/13 36/104/13 31/39/13

usemtl FrontColor
vt -120.079 2.84217e-13
f 33/107/14 40/106/14 36/104/14

vt -80.7087 2.27374e-13
f 27/108/14 40/106/14 33/107/14

vt -59.0551 -3.41061e-13
f 40/106/14 27/108/14 29/109/14

usemtl BackColor
f 29/109/13 27/108/13 40/106/13

f 33/107/13 40/106/13 27/108/13

f 36/104/13 40/106/13 33/107/13

f 33/92/40 35/91/40 36/90/40

f 35/91/40 34/93/40 36/90/40

usemtl FrontColor
vt -19.685 -13.9194
f 29/83/33 31/82/33 40/110/33

usemtl BackColor
f 29/83/34 31/82/34 28/81/34

f 40/110/34 31/82/34 29/83/34

f 39/105/13 31/39/13 36/104/13

f 39/97/42 36/90/42 38/95/42

g Mesh8 Group6 Group3 Group1 Model

l 27 30

l 33 27

l 33 36

l 33 35

l 35 34

v 10.192 2.6159 0.414474
l 35 41

l 34 30

l 37 34

l 38 37

l 38 32

l 38 39

l 39 31

l 36 39

l 36 40

l 36 37

l 31 40

l 31 32

l 32 28

l 29 28

l 27 29

l 40 29

v 7.642 2.9159 0.894474
l 40 42

l 30 28

g Mesh9 Group7 Group3 Group1 Model

usemtl FrontColor
v 6.642 3.1159 1.91447
vt -1.23524e-14 -21.6535
vn -7.58994e-15 1 6.17876e-16
v 7.642 3.1159 4.66447
vt -39.3701 86.6142
v 7.642 3.1159 0.914474
vt -39.3701 -61.0236
f 43/111/45 44/112/45 45/113/45

v 6.642 3.1159 4.66447
vt 1.49933e-12 86.6142
f 44/112/45 43/111/45 46/114/45

usemtl BackColor
vn 7.58994e-15 -1 -6.17876e-16
f 45/113/46 44/112/46 43/111/46

usemtl FrontColor
vt 7.87402 86.6142
vn 1 7.8582e-15 -2.57826e-16
v 7.642 2.4159 0.914474
vt -19.685 -61.0236
vt 7.87402 -61.0236
f 44/115/47 47/116/47 45/117/47

v 7.642 2.4159 4.66447
vt -19.685 86.6142
f 47/116/47 44/115/47 48/118/47

usemtl BackColor
vn -1 -7.8582e-15 2.57826e-16
f 48/118/48 44/115/48 47/116/48

usemtl FrontColor
vt 2.36197e-12 7.87402
vn -3.64634e-14 -9.76805e-16 1
vt 39.3701 -19.685
vt 39.3701 7.87402
f 46/119/49 48/120/49 44/121/49

v 6.642 2.4159 4.66447
vt 2.35486e-12 -19.685
f 48/120/49 46/119/49 49/122/49

usemtl BackColor
vn 3.64634e-14 9.76805e-16 -1
f 49/122/50 46/119/50 48/120/50

usemtl FrontColor
vt -7.87402 86.6142
vn -1 -7.34255e-15 -5.8478e-15
v 6.642 2.4159 1.91447
vt 19.685 -21.6535
vt 19.685 86.6142
f 46/123/51 50/124/51 49/125/51

vt -7.87402 -21.6535
f 50/124/51 46/123/51 43/126/51

usemtl BackColor
vn 1 7.34255e-15 5.8478e-15
f 49/125/52 50/124/52 46/123/52

usemtl FrontColor
vt 5.26746e-15 -21.6535
vn 7.60351e-15 -1 -5.90752e-16
vt 39.3701 86.6142
vt -1.50641e-12 86.6142
f 50/127/53 48/128/53 49/129/53

vt 39.3701 -61.0236
f 48/128/53 50/127/53 47/130/53

usemtl BackColor
vn -7.60351e-15 1 5.90752e-16
f 47/130/54 50/127/54 48/128/54

usemtl FrontColor
vt -7.87402 -15.3114
vn -0.707107 -5.09214e-15 -0.707107
vt 19.685 -70.9891
vt 19.685 -15.3114
f 43/131/55 47/132/55 50/133/55

vt -7.87402 -70.9891
f 47/132/55 43/131/55 45/134/55

usemtl BackColor
vn 0.707107 5.09214e-15 0.707107
f 50/133/56 47/132/56 43/131/56

f 45/134/56 43/131/56 47/132/56

f 45/117/48 47/116/48 44/115/48

f 43/126/52 46/123/52 50/124/52

f 46/114/46 43/111/46 44/112/46

f 44/121/50 48/120/50 46/119/50

f 49/129/54 48/128/54 50/127/54

g Mesh10 Group7 Group3 Group1 Model

l 44 46

l 45 44

l 45 43

l 45 47

l 47 48

l 47 50

l 49 50

l 48 49

l 44 48

l 46 49

l 46 43

l 43 50

